<svg width="148" height="31" viewBox="0 0 148 31" fill="none" xmlns="http://www.w3.org/2000/svg">
    <path d="M9.92 30.504C8.016 30.504 6.364 30.028 4.964 29.076C3.592 28.124 2.528 26.766 1.772 25.002C1.016 23.238 0.638 21.166 0.638 18.786C0.638 16.406 1.016 14.334 1.772 12.57C2.528 10.806 3.606 9.448 5.006 8.496C6.406 7.544 8.044 7.068 9.92 7.068C11.488 7.068 12.86 7.39 14.036 8.034C15.24 8.678 16.15 9.588 16.766 10.764V0.179998H22.142V30H17.018L16.892 26.682C16.276 27.886 15.352 28.824 14.12 29.496C12.888 30.168 11.488 30.504 9.92 30.504ZM11.558 26.136C12.678 26.136 13.616 25.856 14.372 25.296C15.156 24.736 15.744 23.91 16.136 22.818C16.556 21.698 16.766 20.354 16.766 18.786C16.766 17.19 16.556 15.846 16.136 14.754C15.744 13.662 15.156 12.836 14.372 12.276C13.616 11.716 12.678 11.436 11.558 11.436C9.934 11.436 8.632 12.094 7.652 13.41C6.7 14.698 6.224 16.49 6.224 18.786C6.224 21.026 6.7 22.818 7.652 24.162C8.632 25.478 9.934 26.136 11.558 26.136ZM34.1258 30.504C31.7738 30.504 29.8838 29.972 28.4558 28.908C27.0278 27.816 26.3138 26.304 26.3138 24.372C26.3138 22.44 26.9158 20.928 28.1198 19.836C29.3238 18.744 31.1578 17.96 33.6218 17.484L41.0558 16.014C41.0558 14.418 40.6918 13.228 39.9638 12.444C39.2358 11.632 38.1578 11.226 36.7298 11.226C35.4418 11.226 34.4198 11.534 33.6638 12.15C32.9358 12.738 32.4318 13.592 32.1518 14.712L26.6918 14.46C27.1398 12.08 28.2318 10.26 29.9678 9C31.7038 7.712 33.9578 7.068 36.7298 7.068C39.9218 7.068 42.3298 7.88 43.9538 9.504C45.6058 11.1 46.4318 13.396 46.4318 16.392V24.54C46.4318 25.128 46.5298 25.534 46.7258 25.758C46.9498 25.982 47.2718 26.094 47.6918 26.094H48.4058V30C48.2378 30.056 47.9578 30.098 47.5658 30.126C47.2018 30.154 46.8238 30.168 46.4318 30.168C45.5078 30.168 44.6818 30.028 43.9538 29.748C43.2258 29.44 42.6658 28.922 42.2738 28.194C41.8818 27.438 41.6858 26.416 41.6858 25.128L42.1478 25.464C41.9238 26.444 41.4338 27.326 40.6778 28.11C39.9498 28.866 39.0258 29.454 37.9058 29.874C36.7858 30.294 35.5258 30.504 34.1258 30.504ZM35.2178 26.598C36.4218 26.598 37.4578 26.36 38.3258 25.884C39.1938 25.408 39.8658 24.75 40.3418 23.91C40.8178 23.07 41.0558 22.076 41.0558 20.928V19.668L35.2598 20.844C34.0558 21.096 33.1878 21.474 32.6558 21.978C32.1518 22.454 31.8998 23.084 31.8998 23.868C31.8998 24.736 32.1798 25.408 32.7398 25.884C33.3278 26.36 34.1538 26.598 35.2178 26.598ZM51.897 30V7.572H56.937L57.147 13.788L56.685 13.704C57.021 11.548 57.651 9.994 58.575 9.042C59.527 8.062 60.815 7.572 62.439 7.572H64.497V12.192H62.397C61.249 12.192 60.297 12.36 59.541 12.696C58.785 13.032 58.211 13.564 57.819 14.292C57.455 14.992 57.273 15.916 57.273 17.064V30H51.897ZM76.471 30C74.231 30 72.579 29.482 71.515 28.446C70.479 27.41 69.961 25.786 69.961 23.574V2.322H75.337V23.07C75.337 24.106 75.561 24.834 76.009 25.254C76.457 25.646 77.157 25.842 78.109 25.842H81.259V30H76.471ZM66.433 11.73V7.572H81.259V11.73H66.433ZM85.6119 30V7.572H90.4839L90.6939 13.872L90.0639 13.62C90.2879 12.052 90.7499 10.792 91.4499 9.84C92.1499 8.888 93.0039 8.188 94.0119 7.74C95.0199 7.292 96.1259 7.068 97.3299 7.068C98.9819 7.068 100.368 7.432 101.488 8.16C102.636 8.888 103.504 9.896 104.092 11.184C104.68 12.444 104.974 13.914 104.974 15.594V30H99.5979V17.316C99.5979 16.056 99.4719 14.992 99.2199 14.124C98.9679 13.256 98.5479 12.598 97.9599 12.15C97.3999 11.674 96.6439 11.436 95.6919 11.436C94.2639 11.436 93.1159 11.94 92.2479 12.948C91.4079 13.956 90.9879 15.412 90.9879 17.316V30H85.6119ZM120.005 30.504C117.765 30.504 115.819 30.028 114.167 29.076C112.515 28.096 111.241 26.724 110.345 24.96C109.449 23.196 109.001 21.138 109.001 18.786C109.001 16.434 109.449 14.39 110.345 12.654C111.241 10.89 112.501 9.518 114.125 8.538C115.777 7.558 117.695 7.068 119.879 7.068C122.007 7.068 123.869 7.544 125.465 8.496C127.089 9.448 128.335 10.82 129.203 12.612C130.071 14.404 130.505 16.56 130.505 19.08V20.298H114.587C114.699 22.258 115.231 23.742 116.183 24.75C117.163 25.73 118.451 26.22 120.047 26.22C121.251 26.22 122.245 25.954 123.029 25.422C123.841 24.862 124.401 24.092 124.709 23.112L130.211 23.448C129.595 25.632 128.377 27.354 126.557 28.614C124.765 29.874 122.581 30.504 120.005 30.504ZM114.587 16.686H124.961C124.849 14.866 124.331 13.522 123.407 12.654C122.483 11.758 121.307 11.31 119.879 11.31C118.451 11.31 117.261 11.772 116.309 12.696C115.385 13.62 114.811 14.95 114.587 16.686ZM142.916 30C140.676 30 139.024 29.482 137.96 28.446C136.924 27.41 136.406 25.786 136.406 23.574V2.322H141.782V23.07C141.782 24.106 142.006 24.834 142.454 25.254C142.902 25.646 143.602 25.842 144.554 25.842H147.704V30H142.916ZM132.878 11.73V7.572H147.704V11.73H132.878Z" fill="url(#paint0_linear_1_3)"/>
    <defs>
        <linearGradient id="paint0_linear_1_3" x1="-80.1667" y1="3.71428" x2="207.002" y2="33.1416" gradientUnits="userSpaceOnUse">
            <stop stop-color="#00C950"/>
            <stop offset="1" stop-color="#006328"/>
        </linearGradient>
    </defs>
</svg>
